# xmcd
#
# Track frame offsets:
#	225
#	16360
#	27717
#	39470
#	54310
#	68635
#	82382
#	99337
#	117775
#	134357
#	156672
#
# Disc length: 2257 seconds
#
# Revision: 0
# Processed by: cddbd v1.4PL0 Copyright (c) Steve Scherf et al.
# Submitted via: audiograbber 1.80.04
#
DISCID=9608ce0b
DTITLE=Chantal Pary - J'suis Ton Amie
DYEAR=1900
DGENRE=
TTITLE0=Je M'ennuie De Toi
TTITLE1=Le Coeur Ne Vieillit Pas
TTITLE2=Montagne Bleue
TTITLE3=J'attendais Ton  Appel
TTITLE4=Tu Pourrais Me Téléphoner
TTITLE5=Padre Don Jose
TTITLE6=J'suis Ton Amie
TTITLE7=Petite Fille Écoute-Moi
TTITLE8=Le Dernier Rendez-Vous
TTITLE9=Pour Tous Ceux Qui Sont Seuls
TTITLE10=Le Loup, La Biche Et Le Chevalier
EXTD=
EXTT0=
EXTT1=
EXTT2=
EXTT3=
EXTT4=
EXTT5=
EXTT6=
EXTT7=
EXTT8=
EXTT9=
EXTT10=
PLAYORDER=
